<svg width="32" height="32" viewBox="0 0 32 32" fill="none" xmlns="http://www.w3.org/2000/svg">
<g clip-path="url(#clip0_326_6877)">
<path d="M31.4365 29.9629C31.2169 30.1818 30.9688 30.3721 30.6973 30.5273C30.154 30.8379 29.5378 30.9982 28.9121 30.9922H28.9111C29.5367 30.9982 30.1531 30.8378 30.6963 30.5273C30.9 30.4109 31.0903 30.2741 31.2656 30.1211L31.4365 29.9629ZM3.32715 30.9873L3.32617 30.9863L3.32715 30.9873ZM2.58496 30.8633C2.67694 30.8887 2.7695 30.9118 2.86328 30.9297C2.7695 30.9119 2.67695 30.8886 2.58496 30.8633ZM2.25293 30.7539C2.36185 30.7959 2.47258 30.8323 2.58496 30.8633C2.47261 30.8322 2.36183 30.796 2.25293 30.7539ZM1.20312 30.1221C1.37878 30.2755 1.57026 30.4117 1.77441 30.5283C1.92834 30.6162 2.08877 30.6905 2.25293 30.7539C2.08844 30.6905 1.92761 30.6164 1.77344 30.5283C1.56951 30.4118 1.37864 30.2753 1.20312 30.1221ZM0.466797 25.7852C0.162082 26.3069 0.0010334 26.9006 0.000976562 27.5049C0.000976563 28.1092 0.162029 28.7028 0.466797 29.2246C0.544944 29.3603 0.631809 29.49 0.726562 29.6133L0.874023 29.7939C0.720215 29.6191 0.583072 29.429 0.46582 29.2256C0.161182 28.704 0.00013756 28.1099 0 27.5059C0 26.9017 0.161251 26.3078 0.46582 25.7861L7.55078 13.4785L0.466797 25.7852ZM18.2188 2.59082C18.673 2.89193 19.054 3.29287 19.3311 3.76465L32.0068 25.7852C32.3112 26.3072 32.4712 26.9015 32.4707 27.5059C32.4701 28.11 32.309 28.7032 32.0039 29.2246C31.9258 29.3601 31.8388 29.4901 31.7441 29.6133C31.8386 29.4904 31.925 29.3608 32.0029 29.2256C32.2318 28.8345 32.3796 28.4024 32.4395 27.9561C32.4495 27.8815 32.4569 27.8067 32.4619 27.7314C32.467 27.6565 32.4697 27.5813 32.4697 27.5059C32.4702 26.9017 32.31 26.3081 32.0059 25.7861L19.3301 3.76562C19.0926 3.3611 18.7791 3.00784 18.4082 2.72559L18.2188 2.59082ZM16.2393 4.30859C16.4581 4.30859 16.6738 4.36485 16.8643 4.47266C17.0547 4.58046 17.2135 4.73623 17.3262 4.92383L30.002 26.9443C30.1011 27.1143 30.1534 27.3081 30.1523 27.5049C30.1513 27.7017 30.097 27.8946 29.9961 28.0635C29.8856 28.252 29.7266 28.4076 29.5361 28.5146C29.3457 28.6216 29.1304 28.6766 28.9121 28.6729H3.56055C3.34223 28.6766 3.12691 28.6216 2.93652 28.5146C2.74601 28.4076 2.58706 28.252 2.47656 28.0635C2.37652 27.894 2.32425 27.7007 2.32422 27.5039C2.32422 27.3071 2.37658 27.1138 2.47656 26.9443L15.1523 4.92383C15.2651 4.73616 15.4247 4.58046 15.6152 4.47266C15.8056 4.365 16.0206 4.30861 16.2393 4.30859ZM16.2363 22.873C15.8924 22.8731 15.5565 22.9749 15.2705 23.166C14.9846 23.3571 14.7616 23.6286 14.6299 23.9463C14.4982 24.2642 14.4632 24.6146 14.5303 24.9521C14.5974 25.2896 14.7636 25.5995 15.0068 25.8428C15.2501 26.0861 15.5601 26.2522 15.8975 26.3193C16.2348 26.3864 16.5846 26.3514 16.9023 26.2197C17.22 26.088 17.4916 25.8651 17.6826 25.5791C17.8737 25.293 17.9756 24.9564 17.9756 24.6123C17.9755 24.1509 17.7929 23.7081 17.4668 23.3818C17.1406 23.0555 16.6976 22.873 16.2363 22.873ZM16.2363 12.4326C15.929 12.4327 15.6344 12.5552 15.417 12.7725C15.1996 12.99 15.0772 13.2852 15.0771 13.5928V19.3926C15.0771 19.7002 15.1995 19.9954 15.417 20.2129C15.6344 20.4303 15.9289 20.5527 16.2363 20.5527C16.5439 20.5527 16.8392 20.4304 17.0566 20.2129C17.274 19.9954 17.3965 19.7002 17.3965 19.3926V13.5928C17.3965 13.2852 17.2741 12.99 17.0566 12.7725C16.8392 12.5549 16.5439 12.4326 16.2363 12.4326ZM16.002 2C15.4582 2.03561 14.9288 2.19599 14.4541 2.46777C14.3862 2.50665 14.3189 2.54678 14.2539 2.58984C14.3187 2.54689 14.3854 2.50656 14.4531 2.46777C14.7245 2.31241 15.0138 2.19308 15.3135 2.11328C15.3884 2.09334 15.464 2.0756 15.54 2.06055C15.6922 2.03042 15.8465 2.01019 16.002 2ZM17.7168 2.31445C17.8195 2.36102 17.9211 2.41143 18.0195 2.46777C18.0611 2.49156 18.1011 2.5176 18.1416 2.54297C18.1009 2.51744 18.0603 2.4917 18.0186 2.46777C17.9204 2.41156 17.8193 2.36095 17.7168 2.31445ZM17.4629 2.21094C17.5487 2.24222 17.6334 2.27662 17.7168 2.31445C17.6334 2.27665 17.5487 2.24218 17.4629 2.21094ZM17.3818 2.18066H17.3809H17.3818ZM16.9316 2.06152H16.9326H16.9316Z" fill="#CA3C3D"/>
</g>
<defs>
<clipPath id="clip0_326_6877">
<rect width="32" height="32" fill="white"/>
</clipPath>
</defs>
</svg>
