<svg width="32" height="32" viewBox="0 0 32 32" fill="none" xmlns="http://www.w3.org/2000/svg">
<path d="M16.8857 30.9727C16.5927 30.9897 16.2973 31 16 31C15.9619 31 15.9238 30.9983 15.8857 30.998C16.2195 31.0006 16.553 30.9923 16.8857 30.9727ZM15.8857 30.998C15.8395 30.9977 15.7933 30.9969 15.7471 30.9961C15.7932 30.9969 15.8395 30.9977 15.8857 30.998ZM15.3184 30.9834C15.2975 30.9825 15.2767 30.9825 15.2559 30.9814C15.2767 30.9825 15.2975 30.9825 15.3184 30.9834ZM16.9688 30.9678C16.9411 30.9696 16.9134 30.971 16.8857 30.9727C16.9134 30.971 16.9411 30.9695 16.9688 30.9678ZM25.9053 27.2617C23.4894 29.3882 20.3853 30.75 16.9688 30.9678C18.6006 30.8621 20.2132 30.4909 21.7402 29.8584C23.2703 29.2246 24.6749 28.3439 25.9053 27.2617ZM14.7373 30.9463C14.7236 30.9451 14.71 30.9436 14.6963 30.9424C14.71 30.9436 14.7236 30.9451 14.7373 30.9463ZM6.64648 27.7256C8.51335 29.2148 10.7152 30.2428 13.0732 30.7119C13.6113 30.8189 14.1534 30.895 14.6963 30.9424C11.6654 30.6814 8.89278 29.5199 6.64648 27.7256ZM13.5234 3.55176C15.9855 3.06202 18.5382 3.31279 20.8574 4.27344C23.1764 5.23404 25.1581 6.86125 26.5527 8.94824C27.9474 11.0355 28.6924 13.4897 28.6924 16C28.6886 19.365 27.3501 22.5913 24.9707 24.9707C22.5913 27.3501 19.365 28.6885 16 28.6924C13.4897 28.6924 11.0355 27.9483 8.94824 26.5537C6.86104 25.1591 5.2341 23.1766 4.27344 20.8574C3.31279 18.5382 3.06202 15.9855 3.55176 13.5234C4.04155 11.0615 5.25045 8.80033 7.02539 7.02539C8.80035 5.25045 11.0615 4.04153 13.5234 3.55176ZM6.64648 27.7256C6.63452 27.716 6.62229 27.7068 6.61035 27.6973C6.62228 27.7069 6.63453 27.716 6.64648 27.7256ZM6.23438 27.3848C6.22141 27.3736 6.20825 27.3627 6.19531 27.3516C6.20824 27.3627 6.22141 27.3736 6.23438 27.3848ZM25.9639 27.2109C25.9445 27.2281 25.9247 27.2446 25.9053 27.2617C25.9247 27.2446 25.9446 27.2281 25.9639 27.2109ZM26.6777 26.5332C26.4473 26.7668 26.2092 26.9928 25.9639 27.2109C26.2091 26.993 26.4471 26.767 26.6777 26.5332ZM5.84961 27.043C5.81062 27.0071 5.77203 26.9708 5.7334 26.9346C5.77201 26.9708 5.81062 27.0071 5.84961 27.043ZM5.39355 26.6064C5.50504 26.7179 5.61872 26.8269 5.7334 26.9346C5.51003 26.7248 5.29319 26.5082 5.08301 26.2852C5.18503 26.3934 5.28813 26.501 5.39355 26.6064ZM26.7822 26.4258C26.7475 26.4617 26.7128 26.4976 26.6777 26.5332C26.7128 26.4976 26.7475 26.4617 26.7822 26.4258ZM27.4541 25.6836C27.2384 25.9385 27.0142 26.1859 26.7822 26.4258C27.014 26.1861 27.2383 25.9388 27.4541 25.6836ZM5.08301 26.2852C5.0375 26.2369 4.99209 26.1885 4.94727 26.1396C4.99212 26.1885 5.03751 26.2369 5.08301 26.2852ZM4.64844 25.8047C4.63334 25.7872 4.61853 25.7695 4.60352 25.752C4.61854 25.7695 4.63334 25.7872 4.64844 25.8047ZM27.4893 25.6416C27.4775 25.6556 27.4659 25.6697 27.4541 25.6836C27.4659 25.6697 27.4775 25.6556 27.4893 25.6416ZM30.9873 16.5898C30.8542 20.0315 29.5618 23.1745 27.4893 25.6416C27.8388 25.225 28.1675 24.7891 28.4717 24.334C30.0105 22.031 30.8787 19.3498 30.9873 16.5898ZM4.3125 25.4014C4.29711 25.3822 4.2819 25.363 4.2666 25.3438C4.28191 25.363 4.2971 25.3822 4.3125 25.4014ZM1.05957 17.3291C1.10711 17.8635 1.18273 18.3971 1.28809 18.9268C1.75637 21.2807 2.78159 23.479 4.2666 25.3438C2.48184 23.1054 1.32444 20.3456 1.05957 17.3291ZM21.7695 11.3838C21.6179 11.3838 21.4672 11.4136 21.3271 11.4717C21.1873 11.5297 21.0602 11.6146 20.9531 11.7217L13.6924 18.9844L11.0469 16.3379C10.8304 16.1214 10.5367 15.999 10.2305 15.999C9.92435 15.9991 9.63052 16.1214 9.41406 16.3379C9.19776 16.5544 9.07617 16.8483 9.07617 17.1543C9.07629 17.4602 9.19789 17.7534 9.41406 17.9697L12.876 21.4316C12.9831 21.5389 13.11 21.6246 13.25 21.6826C13.3901 21.7407 13.5407 21.7705 13.6924 21.7705C13.8438 21.7705 13.9939 21.7406 14.1338 21.6826C14.2739 21.6246 14.4016 21.5389 14.5088 21.4316L22.5859 13.3545C22.693 13.2474 22.7779 13.1203 22.8359 12.9805C22.894 12.8404 22.9238 12.6897 22.9238 12.5381C22.9238 12.3866 22.8939 12.2366 22.8359 12.0967C22.7779 11.9566 22.6932 11.8288 22.5859 11.7217C22.4788 11.6144 22.351 11.5297 22.2109 11.4717C22.071 11.4137 21.921 11.3838 21.7695 11.3838ZM1.05957 17.3291C1.05705 17.3008 1.05412 17.2725 1.05176 17.2441C1.05409 17.2725 1.05708 17.3008 1.05957 17.3291ZM1.0166 16.7119C1.02503 16.8894 1.037 17.0668 1.05176 17.2441C1.03726 17.0676 1.02493 16.8902 1.0166 16.7119ZM30.9902 16.5137C30.9894 16.5391 30.9883 16.5645 30.9873 16.5898C30.9883 16.5645 30.9894 16.5391 30.9902 16.5137ZM16 1C24.2843 1 31 7.71573 31 16C31 16.1719 30.996 16.3431 30.9902 16.5137C30.9961 16.3427 31 16.1715 31 16C30.9958 12.0231 29.4137 8.21057 26.6016 5.39844C23.7894 2.58632 19.9769 1.00422 16 1ZM1.00293 16.252C1.00215 16.2057 1.00133 16.1595 1.00098 16.1133C1.00132 16.1596 1.00217 16.2058 1.00293 16.252ZM1.02637 15.1152C1.00674 15.4474 0.998463 15.7802 1.00098 16.1133C1.0007 16.0756 1 16.0378 1 16C1 15.703 1.00934 15.408 1.02637 15.1152ZM1.02637 15.1152C1.02808 15.0862 1.03035 15.0573 1.03223 15.0283C1.03037 15.0573 1.02805 15.0862 1.02637 15.1152ZM1.07227 14.5273C1.34868 11.6908 2.41517 9.08619 4.04883 6.93555C3.27773 7.95219 2.63513 9.06829 2.1416 10.2598C1.57427 11.6294 1.21625 13.0679 1.07227 14.5273ZM4.04883 6.93555C4.05992 6.92092 4.07088 6.90619 4.08203 6.8916C4.07087 6.90618 4.05993 6.92093 4.04883 6.93555ZM4.42578 6.45898C4.40488 6.48432 4.38402 6.50969 4.36328 6.53516C4.37701 6.51828 4.39049 6.50119 4.4043 6.48438L4.42578 6.45898ZM4.72754 6.10449C4.75356 6.07485 4.77941 6.04506 4.80566 6.01562C4.7794 6.04505 4.75357 6.07486 4.72754 6.10449ZM5.25977 5.53125C5.1905 5.60231 5.12157 5.67368 5.05371 5.74609C5.12154 5.67368 5.19048 5.60233 5.25977 5.53125ZM5.46582 5.32129C5.50138 5.28621 5.53733 5.25153 5.57324 5.2168C5.53734 5.25153 5.50138 5.28621 5.46582 5.32129ZM5.91504 4.89648C5.94849 4.8661 5.98286 4.83673 6.0166 4.80664C5.98288 4.83674 5.94849 4.86609 5.91504 4.89648ZM6.2959 4.5625C6.31967 4.54233 6.34328 4.52198 6.36719 4.50195C6.3433 4.52199 6.31966 4.54232 6.2959 4.5625ZM7.17969 3.86719C6.90108 4.06972 6.63022 4.28159 6.36719 4.50195C6.63039 4.28121 6.90156 4.06973 7.17969 3.86719ZM7.17969 3.86719C7.19833 3.85364 7.21665 3.83964 7.23535 3.82617C7.21666 3.83966 7.19832 3.85362 7.17969 3.86719ZM14.8916 1.04004C12.3152 1.23089 9.82454 2.08604 7.66602 3.52832C7.5207 3.62542 7.37684 3.72431 7.23535 3.82617C9.41992 2.25056 12.0454 1.24797 14.8916 1.04004ZM15.4092 1.01172C15.431 1.01086 15.4528 1.01053 15.4746 1.00977C15.4528 1.01052 15.431 1.01087 15.4092 1.01172ZM1.03223 15.0283C1.04245 14.8684 1.05512 14.7093 1.07031 14.5508C1.05488 14.7097 1.04257 14.8689 1.03223 15.0283Z" fill="#107C41"/>
</svg>
