<svg width="32" height="32" viewBox="0 0 32 32" fill="none" xmlns="http://www.w3.org/2000/svg">
<path d="M16.8857 30.9727C16.5927 30.9897 16.2973 31 16 31C15.9619 31 15.9238 30.9983 15.8857 30.998C16.2195 31.0006 16.553 30.9923 16.8857 30.9727ZM15.8857 30.998C15.8395 30.9977 15.7933 30.9969 15.7471 30.9961C15.7933 30.9969 15.8395 30.9977 15.8857 30.998ZM15.3184 30.9834C15.2975 30.9825 15.2767 30.9825 15.2559 30.9814C15.2767 30.9825 15.2975 30.9825 15.3184 30.9834ZM16.9688 30.9678C16.9411 30.9696 16.9134 30.971 16.8857 30.9727C16.9134 30.971 16.9411 30.9695 16.9688 30.9678ZM25.9053 27.2617C23.4894 29.3883 20.3853 30.75 16.9688 30.9678C18.6006 30.8621 20.2132 30.4909 21.7402 29.8584C23.2703 29.2246 24.6749 28.3439 25.9053 27.2617ZM14.7402 30.9463C14.7246 30.945 14.709 30.9437 14.6934 30.9424C14.709 30.9437 14.7246 30.945 14.7402 30.9463ZM6.64648 27.7256C8.51334 29.2148 10.7152 30.2428 13.0732 30.7119C13.6103 30.8187 14.1514 30.895 14.6934 30.9424C11.6637 30.6808 8.89204 29.5193 6.64648 27.7256ZM13.5234 3.55176C15.9855 3.06202 18.5382 3.31279 20.8574 4.27344C23.1764 5.23404 25.1582 6.86126 26.5527 8.94824C27.9474 11.0355 28.6924 13.4897 28.6924 16C28.6886 19.365 27.3501 22.5913 24.9707 24.9707C22.5913 27.3501 19.365 28.6885 16 28.6924C13.4897 28.6924 11.0355 27.9483 8.94824 26.5537C6.86105 25.1591 5.23408 23.1766 4.27344 20.8574C3.3128 18.5382 3.06203 15.9855 3.55176 13.5234C4.04155 11.0616 5.25047 8.80033 7.02539 7.02539C8.80033 5.25045 11.0615 4.04154 13.5234 3.55176ZM6.64648 27.7256C6.63452 27.716 6.62229 27.7068 6.61035 27.6973C6.62228 27.7069 6.63453 27.716 6.64648 27.7256ZM6.23438 27.3848C6.22141 27.3736 6.20825 27.3627 6.19531 27.3516C6.20824 27.3627 6.22141 27.3736 6.23438 27.3848ZM25.9619 27.2119C25.9431 27.2286 25.9242 27.2451 25.9053 27.2617C25.9241 27.2451 25.9431 27.2286 25.9619 27.2119ZM26.6895 26.5215C26.4549 26.7598 26.2119 26.9896 25.9619 27.2119C26.2118 26.9899 26.4547 26.76 26.6895 26.5215ZM5.84961 27.043C5.81062 27.0071 5.77203 26.9708 5.7334 26.9346C5.77201 26.9708 5.81062 27.0071 5.84961 27.043ZM5.39355 26.6064C5.50503 26.7179 5.61872 26.8269 5.7334 26.9346C5.50416 26.7192 5.28175 26.4968 5.06641 26.2676C5.17378 26.3819 5.2824 26.4953 5.39355 26.6064ZM26.7666 26.4424C26.741 26.4688 26.7153 26.4952 26.6895 26.5215C26.7153 26.4952 26.741 26.4688 26.7666 26.4424ZM27.4541 25.6836C27.2335 25.9443 27.0043 26.1974 26.7666 26.4424C27.004 26.1976 27.2334 25.9447 27.4541 25.6836ZM5.06641 26.2676C5.02807 26.2268 4.98999 26.1857 4.95215 26.1445C4.99002 26.1858 5.02808 26.2268 5.06641 26.2676ZM4.64844 25.8047C4.63334 25.7872 4.61853 25.7695 4.60352 25.752C4.61854 25.7695 4.63334 25.7872 4.64844 25.8047ZM27.4893 25.6416C27.4775 25.6556 27.4659 25.6697 27.4541 25.6836C27.4659 25.6697 27.4775 25.6556 27.4893 25.6416ZM30.958 17.1104C30.7211 20.3481 29.4568 23.2995 27.4893 25.6416C27.8388 25.225 28.1675 24.7891 28.4717 24.334C29.9135 22.1761 30.7668 19.686 30.958 17.1104ZM4.31543 25.4043C4.29394 25.3776 4.27227 25.3511 4.25098 25.3242C4.2723 25.351 4.29393 25.3776 4.31543 25.4043ZM1.05859 17.3271C1.10612 17.8622 1.1826 18.3964 1.28809 18.9268C1.75472 21.2724 2.77441 23.4636 4.25098 25.3242C2.4747 23.0889 1.32233 20.3357 1.05859 17.3271ZM16 20.6152C15.6577 20.6152 15.3227 20.717 15.0381 20.9072C14.7537 21.0973 14.5323 21.3676 14.4014 21.6836C14.2704 21.9998 14.236 22.3479 14.3027 22.6836C14.3695 23.0193 14.5343 23.3283 14.7764 23.5703C15.0184 23.8122 15.3265 23.9772 15.6621 24.0439C15.9978 24.1107 16.3459 24.0763 16.6621 23.9453C16.9784 23.8143 17.2493 23.5922 17.4395 23.3076C17.6295 23.0231 17.7305 22.6879 17.7305 22.3457C17.7303 21.8868 17.5481 21.4465 17.2236 21.1221C16.8991 20.7976 16.4589 20.6153 16 20.6152ZM16 7.92285C15.694 7.92285 15.4 8.04435 15.1836 8.26074C14.9672 8.47713 14.8457 8.77115 14.8457 9.07715V17.1543C14.8458 17.4601 14.9675 17.7535 15.1836 17.9697C15.4 18.1861 15.694 18.3076 16 18.3076C16.3059 18.3076 16.5991 18.186 16.8154 17.9697C17.0317 17.7534 17.1532 17.4602 17.1533 17.1543V9.07715C17.1533 8.77113 17.0318 8.47713 16.8154 8.26074C16.5991 8.0446 16.3058 7.92287 16 7.92285ZM1.05859 17.3271C1.05614 17.2995 1.05406 17.2718 1.05176 17.2441C1.05403 17.2718 1.05617 17.2995 1.05859 17.3271ZM30.9893 16.5244C30.9885 16.5462 30.9882 16.568 30.9873 16.5898C30.9881 16.568 30.9885 16.5462 30.9893 16.5244ZM16 1C24.2842 1 31 7.71577 31 16C31 16.1755 30.9952 16.3503 30.9893 16.5244C30.9954 16.3499 31 16.1751 31 16C30.9958 12.0231 29.4136 8.21055 26.6016 5.39844C23.7895 2.58633 19.9769 1.00422 16 1ZM1.00293 16.252C1.00215 16.2057 1.00133 16.1595 1.00098 16.1133C1.00132 16.1596 1.00217 16.2058 1.00293 16.252ZM1.02637 15.1152C1.00674 15.4473 0.998464 15.7802 1.00098 16.1133C1.0007 16.0756 1 16.0378 1 16C1 15.703 1.00934 15.408 1.02637 15.1152ZM1.02637 15.1152C1.02808 15.0862 1.03035 15.0573 1.03223 15.0283C1.03037 15.0573 1.02805 15.0862 1.02637 15.1152ZM1.07227 14.5273C1.34837 11.694 2.41241 9.09163 4.04297 6.94238C3.2743 7.9571 2.63396 9.0711 2.1416 10.2598C1.57428 11.6294 1.21625 13.0679 1.07227 14.5273ZM4.04297 6.94238C4.06035 6.91944 4.07819 6.89686 4.0957 6.87402C4.07818 6.89685 4.06036 6.91945 4.04297 6.94238ZM4.39941 6.49121C4.50728 6.35977 4.61731 6.23019 4.72949 6.10254C4.61732 6.23028 4.50717 6.35975 4.39941 6.49121ZM4.72949 6.10254C4.75491 6.07359 4.78002 6.04438 4.80566 6.01562C4.78001 6.04436 4.75492 6.0736 4.72949 6.10254ZM5.25977 5.53125C5.1905 5.60231 5.12157 5.67368 5.05371 5.74609C5.12154 5.67368 5.19048 5.60233 5.25977 5.53125ZM5.46582 5.32129C5.50138 5.28621 5.53733 5.25153 5.57324 5.2168C5.53734 5.25153 5.50138 5.28621 5.46582 5.32129ZM5.91504 4.89648C5.94849 4.8661 5.98286 4.83673 6.0166 4.80664C5.98288 4.83674 5.94849 4.86609 5.91504 4.89648ZM6.28223 4.57422C6.31705 4.5446 6.35161 4.51466 6.38672 4.48535C6.35163 4.51468 6.31704 4.54458 6.28223 4.57422ZM7.16016 3.88184C6.89541 4.07496 6.63736 4.2761 6.38672 4.48535C6.63751 4.27574 6.89585 4.07497 7.16016 3.88184ZM7.16016 3.88184C7.18782 3.86166 7.21535 3.84129 7.24316 3.82129C7.21537 3.84131 7.18781 3.86163 7.16016 3.88184ZM14.8887 1.04102C12.3133 1.23231 9.82368 2.08661 7.66602 3.52832C7.52326 3.62371 7.38223 3.7213 7.24316 3.82129C9.42546 2.24932 12.0469 1.2492 14.8887 1.04102ZM14.8887 1.04102C14.8916 1.0408 14.8945 1.04026 14.8975 1.04004C14.8945 1.04025 14.8916 1.0408 14.8887 1.04102ZM15.4092 1.01172C15.431 1.01086 15.4528 1.01053 15.4746 1.00977C15.4528 1.01052 15.431 1.01087 15.4092 1.01172ZM30.9873 16.5898C30.9806 16.7631 30.9715 16.9357 30.959 17.1074C30.9717 16.9353 30.9805 16.7627 30.9873 16.5898ZM1.01562 16.6777C1.01657 16.6986 1.01655 16.7194 1.01758 16.7402C1.01657 16.7194 1.01655 16.6986 1.01562 16.6777ZM1.03223 15.0283C1.04245 14.8684 1.05512 14.7093 1.07031 14.5508C1.05488 14.7097 1.04257 14.8689 1.03223 15.0283ZM4.0957 6.87402C4.19494 6.74477 4.29611 6.61709 4.39941 6.49121C4.29615 6.61719 4.19482 6.74473 4.0957 6.87402Z" fill="#E76F00"/>
</svg>
