<svg width="32" height="32" viewBox="0 0 32 32" fill="none" xmlns="http://www.w3.org/2000/svg">
<path d="M28.7071 9.70751L12.7071 25.7075C12.6142 25.8005 12.5039 25.8742 12.3825 25.9246C12.2611 25.9749 12.131 26.0008 11.9996 26.0008C11.8682 26.0008 11.738 25.9749 11.6166 25.9246C11.4952 25.8742 11.385 25.8005 11.2921 25.7075L4.29208 18.7075C4.10444 18.5199 3.99902 18.2654 3.99902 18C3.99902 17.7346 4.10444 17.4801 4.29208 17.2925C4.47972 17.1049 4.73422 16.9994 4.99958 16.9994C5.26494 16.9994 5.51944 17.1049 5.70708 17.2925L11.9996 23.5863L27.2921 8.29251C27.4797 8.10487 27.7342 7.99945 27.9996 7.99945C28.2649 7.99945 28.5194 8.10487 28.7071 8.29251C28.8947 8.48015 29.0001 8.73464 29.0001 9.00001C29.0001 9.26537 28.8947 9.51987 28.7071 9.70751Z" fill="#343330"/>
</svg>
