<svg width="32" height="32" viewBox="0 0 32 32" fill="none" xmlns="http://www.w3.org/2000/svg">
<path d="M27.9997 16C27.9996 16.1894 27.9458 16.3749 27.8444 16.5349C27.7431 16.6949 27.5984 16.8228 27.4272 16.9037L8.42718 25.9037C8.30849 25.96 8.1799 25.9923 8.04874 25.9988C7.91757 26.0053 7.78641 25.9859 7.66273 25.9418C7.53906 25.8976 7.42529 25.8295 7.32793 25.7414C7.23057 25.6533 7.15152 25.5468 7.0953 25.4281C7.03908 25.3094 7.00678 25.1808 7.00026 25.0497C6.99373 24.9185 7.01311 24.7874 7.05727 24.6637C7.10144 24.54 7.16953 24.4262 7.25766 24.3289C7.3458 24.2315 7.45224 24.1525 7.57093 24.0962L24.6634 16L7.57218 7.90375C7.45349 7.84753 7.34705 7.76848 7.25891 7.67112C7.17078 7.57376 7.10269 7.45999 7.05852 7.33631C7.01436 7.21264 6.99498 7.08147 7.00151 6.95031C7.00803 6.81915 7.04033 6.69055 7.09655 6.57187C7.15277 6.45319 7.23182 6.34674 7.32918 6.25861C7.42654 6.17048 7.54031 6.10239 7.66398 6.05822C7.78766 6.01405 7.91882 5.99468 8.04999 6.0012C8.18115 6.00773 8.30974 6.04003 8.42843 6.09625L27.4284 15.0962C27.5994 15.1774 27.7438 15.3054 27.845 15.4654C27.9461 15.6253 27.9997 15.8107 27.9997 16Z" fill="#343330"/>
</svg>
