<svg width="32" height="32" viewBox="0 0 32 32" fill="none" xmlns="http://www.w3.org/2000/svg">
<path d="M28.9997 17.0825C28.7872 19.5525 27.8738 21.9104 26.3668 23.8788C24.8597 25.8473 22.8219 27.3444 20.4929 28.194C18.1639 29.0436 15.6408 29.2103 13.2203 28.6746C10.7997 28.139 8.58257 26.9231 6.82959 25.1701C5.07661 23.4171 3.86075 21.2 3.32506 18.7794C2.78937 16.3589 2.95614 13.8358 3.80574 11.5068C4.65534 9.17784 6.15243 7.13997 8.12087 5.63296C10.0893 4.12594 12.4472 3.21247 14.9172 3.00001C15.0485 2.98918 15.1807 3.00431 15.3062 3.04456C15.4316 3.0848 15.5479 3.14937 15.6485 3.23457C15.749 3.31976 15.8317 3.42393 15.892 3.54111C15.9523 3.65829 15.9889 3.78619 15.9997 3.91751C16.0105 4.04883 15.9954 4.181 15.9551 4.30647C15.9149 4.43194 15.8503 4.54826 15.7651 4.64878C15.6799 4.7493 15.5758 4.83205 15.4586 4.89232C15.3414 4.95258 15.2135 4.98918 15.0822 5.00001C12.9917 5.17963 10.996 5.95259 9.32983 7.22796C7.66372 8.50333 6.39652 10.228 5.67735 12.1992C4.95819 14.1703 4.81696 16.3058 5.2703 18.3545C5.72364 20.4031 6.75269 22.2797 8.23635 23.7634C9.72002 25.247 11.5966 26.2761 13.6452 26.7294C15.6939 27.1827 17.8294 27.0415 19.8005 26.3224C21.7717 25.6032 23.4964 24.336 24.7717 22.6699C26.0471 21.0038 26.8201 19.008 26.9997 16.9175C27.0216 16.6523 27.1479 16.4066 27.3509 16.2346C27.5539 16.0625 27.817 15.9781 28.0822 16C28.3474 16.0219 28.5931 16.1482 28.7651 16.3512C28.9372 16.5542 29.0216 16.8173 28.9997 17.0825ZM14.9997 9.00001V16C14.9997 16.2652 15.1051 16.5196 15.2926 16.7071C15.4801 16.8947 15.7345 17 15.9997 17H22.9997C23.2649 17 23.5193 16.8947 23.7068 16.7071C23.8943 16.5196 23.9997 16.2652 23.9997 16C23.9997 15.7348 23.8943 15.4804 23.7068 15.2929C23.5193 15.1054 23.2649 15 22.9997 15H16.9997V9.00001C16.9997 8.73479 16.8943 8.48044 16.7068 8.2929C16.5193 8.10537 16.2649 8.00001 15.9997 8.00001C15.7345 8.00001 15.4801 8.10537 15.2926 8.2929C15.1051 8.48044 14.9997 8.73479 14.9997 9.00001ZM19.9997 6.00001C20.2964 6.00001 20.5864 5.91204 20.8331 5.74721C21.0797 5.58239 21.272 5.34812 21.3855 5.07404C21.499 4.79995 21.5288 4.49835 21.4709 4.20737C21.413 3.9164 21.2701 3.64913 21.0604 3.43935C20.8506 3.22957 20.5833 3.08671 20.2923 3.02883C20.0014 2.97095 19.6998 3.00066 19.4257 3.11419C19.1516 3.22772 18.9173 3.41998 18.7525 3.66665C18.5877 3.91333 18.4997 4.20334 18.4997 4.50001C18.4997 4.89783 18.6577 5.27937 18.939 5.56067C19.2203 5.84197 19.6019 6.00001 19.9997 6.00001ZM24.4997 9.00001C24.7964 9.00001 25.0864 8.91204 25.3331 8.74721C25.5797 8.58239 25.772 8.34812 25.8855 8.07404C25.999 7.79995 26.0288 7.49835 25.9709 7.20737C25.913 6.9164 25.7701 6.64913 25.5604 6.43935C25.3506 6.22957 25.0833 6.08671 24.7923 6.02883C24.5014 5.97095 24.1998 6.00066 23.9257 6.11419C23.6516 6.22772 23.4173 6.41998 23.2525 6.66665C23.0877 6.91333 22.9997 7.20334 22.9997 7.50001C22.9997 7.89783 23.1577 8.27937 23.439 8.56067C23.7203 8.84197 24.1019 9.00001 24.4997 9.00001ZM27.4997 13.5C27.7964 13.5 28.0864 13.412 28.3331 13.2472C28.5797 13.0824 28.772 12.8481 28.8855 12.574C28.999 12.2999 29.0288 11.9983 28.9709 11.7074C28.913 11.4164 28.7701 11.1491 28.5604 10.9393C28.3506 10.7296 28.0833 10.5867 27.7923 10.5288C27.5014 10.471 27.1998 10.5007 26.9257 10.6142C26.6516 10.7277 26.4173 10.92 26.2525 11.1667C26.0877 11.4133 25.9997 11.7033 25.9997 12C25.9997 12.3978 26.1577 12.7794 26.439 13.0607C26.7203 13.342 27.1019 13.5 27.4997 13.5Z" fill="#343330"/>
</svg>
